<svg width="24" height="24" viewBox="0 0 24 24" fill="none" xmlns="http://www.w3.org/2000/svg">
<path opacity="0.4" d="M20.5 9.69H17.61C15.5161 9.69 13.81 7.98386 13.81 5.89V3C13.81 2.17386 13.1361 1.5 12.31 1.5H8.07C6.42289 1.5 4.90157 2.03564 3.7877 3.08179C2.66888 4.13259 2 5.66234 2 7.57V16.43C2 18.3377 2.66888 19.8674 3.7877 20.9182C4.90157 21.9644 6.42289 22.5 8.07 22.5H15.93C17.5771 22.5 19.0984 21.9644 20.2123 20.9182C21.3311 19.8674 22 18.3377 22 16.43V11.19C22 10.3639 21.3261 9.69 20.5 9.69Z" fill="white" stroke="black"/>
<path d="M15.7997 2.20999C15.3897 1.79999 14.6797 2.07999 14.6797 2.64999V6.13999C14.6797 7.59999 15.9197 8.80999 17.4297 8.80999C18.3797 8.81999 19.6997 8.81999 20.8297 8.81999C21.3997 8.81999 21.6997 8.14999 21.2997 7.74999C19.8597 6.29999 17.2797 3.68999 15.7997 2.20999Z" fill="#FF7C55"/>
<path d="M13.5 13.75H7.5C7.09 13.75 6.75 13.41 6.75 13C6.75 12.59 7.09 12.25 7.5 12.25H13.5C13.91 12.25 14.25 12.59 14.25 13C14.25 13.41 13.91 13.75 13.5 13.75Z" fill="#77D1C5"/>
<path d="M11.5 17.75H7.5C7.09 17.75 6.75 17.41 6.75 17C6.75 16.59 7.09 16.25 7.5 16.25H11.5C11.91 16.25 12.25 16.59 12.25 17C12.25 17.41 11.91 17.75 11.5 17.75Z" fill="#77D1C5"/>
</svg>
