<svg width="20" height="20" viewBox="0 0 20 20" fill="none" xmlns="http://www.w3.org/2000/svg">
<path opacity="0.4" d="M5.81 0.5H14.19C15.9106 0.5 17.2238 1.01093 18.1064 1.89355C18.9891 2.77618 19.5 4.08944 19.5 5.81V14.19C19.5 15.9106 18.9891 17.2238 18.1064 18.1064C17.2238 18.9891 15.9106 19.5 14.19 19.5H5.81C4.08944 19.5 2.77618 18.9891 1.89355 18.1064C1.01093 17.2238 0.5 15.9106 0.5 14.19V5.81C0.5 4.08944 1.01093 2.77618 1.89355 1.89355C2.77618 1.01093 4.08944 0.5 5.81 0.5Z" fill="white" stroke="black"/>
<path d="M16.3105 6.87012C16.3105 7.28012 15.9805 7.62012 15.5605 7.62012H10.3105C9.90055 7.62012 9.56055 7.28012 9.56055 6.87012C9.56055 6.46012 9.90055 6.12012 10.3105 6.12012H15.5605C15.9805 6.12012 16.3105 6.46012 16.3105 6.87012Z" fill="#77D1C5"/>
<path d="M7.97055 5.90006L5.72055 8.15006C5.57055 8.30006 5.38055 8.37006 5.19055 8.37006C5.00055 8.37006 4.80055 8.30006 4.66055 8.15006L3.91055 7.40006C3.61055 7.11006 3.61055 6.63006 3.91055 6.34006C4.20055 6.05006 4.67055 6.05006 4.97055 6.34006L5.19055 6.56006L6.91055 4.84006C7.20055 4.55006 7.67055 4.55006 7.97055 4.84006C8.26055 5.13006 8.26055 5.61006 7.97055 5.90006Z" fill="#FF7C55"/>
<path d="M16.3105 13.8701C16.3105 14.2801 15.9805 14.6201 15.5605 14.6201H10.3105C9.90055 14.6201 9.56055 14.2801 9.56055 13.8701C9.56055 13.4601 9.90055 13.1201 10.3105 13.1201H15.5605C15.9805 13.1201 16.3105 13.4601 16.3105 13.8701Z" fill="#77D1C5"/>
<path d="M7.97055 12.9001L5.72055 15.1501C5.57055 15.3001 5.38055 15.3701 5.19055 15.3701C5.00055 15.3701 4.80055 15.3001 4.66055 15.1501L3.91055 14.4001C3.61055 14.1101 3.61055 13.6301 3.91055 13.3401C4.20055 13.0501 4.67055 13.0501 4.97055 13.3401L5.19055 13.5601L6.91055 11.8401C7.20055 11.5501 7.67055 11.5501 7.97055 11.8401C8.26055 12.1301 8.26055 12.6101 7.97055 12.9001Z" fill="#FF7C55"/>
</svg>
