<svg width="24" height="24" viewBox="0 0 24 24" fill="none" xmlns="http://www.w3.org/2000/svg">
<path opacity="0.4" d="M7.81978 2.5H16.1898C17.9103 2.5 19.2236 3.01093 20.1062 3.89355C20.9888 4.77618 21.4998 6.08943 21.4998 7.81V16.18C21.4998 17.9006 20.9888 19.2138 20.1062 20.0964C19.2236 20.9791 17.9103 21.49 16.1898 21.49H7.81978C6.09921 21.49 4.78595 20.9791 3.90332 20.0964C3.0207 19.2138 2.50977 17.9006 2.50977 16.18V7.81C2.50977 6.08943 3.0207 4.77618 3.90332 3.89355C4.78595 3.01093 6.09921 2.5 7.81978 2.5Z" fill="white" stroke="black"/>
<path fill-rule="evenodd" clip-rule="evenodd" d="M11.4697 5.97944C11.7626 5.68654 12.2374 5.68654 12.5303 5.97944L15.5303 8.97944C15.8232 9.27233 15.8232 9.7472 15.5303 10.0401C15.2374 10.333 14.7626 10.333 14.4697 10.0401L12 7.57043L9.53033 10.0401C9.23744 10.333 8.76256 10.333 8.46967 10.0401C8.17678 9.7472 8.17678 9.27233 8.46967 8.97944L11.4697 5.97944Z" fill="#FF7C55"/>
<path fill-rule="evenodd" clip-rule="evenodd" d="M12 5.75977C12.4142 5.75977 12.75 6.09555 12.75 6.50977V14.5098C12.75 14.924 12.4142 15.2598 12 15.2598C11.5858 15.2598 11.25 14.924 11.25 14.5098V6.50977C11.25 6.09555 11.5858 5.75977 12 5.75977Z" fill="#FF7C55"/>
<path fill-rule="evenodd" clip-rule="evenodd" d="M5.28887 16.2722C5.42016 15.8794 5.84507 15.6674 6.23792 15.7986C9.97364 17.0471 14.0268 17.0471 17.7625 15.7986C18.1553 15.6674 18.5802 15.8794 18.7115 16.2722C18.8428 16.6651 18.6308 17.09 18.2379 17.2213C14.1936 18.5729 9.80677 18.5729 5.76248 17.2213C5.36963 17.09 5.15759 16.6651 5.28887 16.2722Z" fill="#77D1C5"/>
</svg>
